<svg width="848" height="212" viewBox="0 0 848 212" fill="none" xmlns="http://www.w3.org/2000/svg">
<path d="M0.601562 212V0.574219H52.6035V172.449H218.375V212H0.601562ZM276.48 212V0.574219H466.422C484.163 0.574219 496.939 3.82943 504.752 10.3398C512.564 16.6875 516.471 27.1042 516.471 41.5898V66.9805C516.471 76.5833 513.378 84.4772 507.193 90.6621C501.008 96.847 492.057 100.997 480.338 103.113C492.219 105.066 501.415 109.624 507.926 116.785C514.599 123.784 517.936 132.654 517.936 143.396V170.496C517.936 184.331 512.483 194.747 501.578 201.746C490.673 208.582 474.234 212 452.262 212H276.48ZM442.74 34.998H327.262V85.0469H442.74C451.692 85.0469 457.796 83.9076 461.051 81.6289C464.306 79.3503 465.934 75.444 465.934 69.9102V49.8906C465.934 44.3568 464.306 40.5319 461.051 38.416C457.958 36.1374 451.855 34.998 442.74 34.998ZM442.74 119.959H327.262V173.914H442.74C452.506 173.914 459.098 172.531 462.516 169.764C466.096 166.997 467.887 162.114 467.887 155.115V139.002C467.887 132.003 466.096 127.12 462.516 124.354C459.098 121.424 452.506 119.959 442.74 119.959Z" fill="#1A1A1A"/>
<path d="M800.406 38.416H654.898V83.0938H792.594C814.241 83.0938 828.808 86.5931 836.295 93.5918C843.782 100.428 847.525 113.53 847.525 132.898V161.951C847.525 181.32 843.701 194.503 836.051 201.502C828.401 208.501 813.915 212 792.594 212H655.387C633.577 212 618.766 208.501 610.953 201.502C603.303 194.503 599.479 181.32 599.479 161.951V156.092L645.377 147.547V172.449H800.895V124.109H663.932C642.285 124.109 627.636 120.61 619.986 113.611C612.337 106.45 608.512 93.2663 608.512 74.0605V50.3789C608.512 31.3359 612.337 18.3151 619.986 11.3164C627.636 4.15495 642.285 0.574219 663.932 0.574219H789.42C810.742 0.574219 825.309 3.99219 833.121 10.8281C841.096 17.5013 845.084 29.3828 845.084 46.4727V51.5996L800.406 61.1211V38.416Z" fill="#FF7A00"/>
</svg>
