<svg width="317" height="166" viewBox="0 0 317 166" fill="none" xmlns="http://www.w3.org/2000/svg">
<g filter="url(#filter0_d)">
<path fill-rule="evenodd" clip-rule="evenodd" d="M111.482 72.8377L111.172 60.4439C111.172 60.4439 109.313 58.3784 108.693 58.3784C108.074 58.3784 62.6294 59.8241 62.6294 59.8241C62.6294 59.8241 14.9118 67.674 12.641 69.7393C10.3688 71.8052 9.7491 72.6314 9.54253 74.284C9.33593 75.9363 6.65052 105.992 6.65052 105.992C6.65052 105.992 6.23742 110.743 6.65052 110.743C7.06366 110.743 12.641 110.64 12.641 110.64C12.641 110.64 11.8147 110.02 12.4344 110.02C13.0541 110.02 14.3968 109.4 14.3968 109.4L15.0165 110.846L25.035 110.743L24.4153 109.607H27.3072V110.64L84.5283 110.227L112.931 81.7201L111.486 72.8378L111.482 72.8377Z" fill="url(#paint0_linear)"/>
<path fill-rule="evenodd" clip-rule="evenodd" d="M215.091 101C213.878 104.64 204.575 112.729 204.575 112.729L177.476 110.302L163.724 113.538L138.648 110.707L139.457 98.573L215.092 101L215.091 101Z" fill="black" stroke="black"/>
<path fill-rule="evenodd" clip-rule="evenodd" d="M173.761 142.245C173.761 142.245 165.601 137.081 165.601 131.711C165.601 126.34 167.461 112.396 167.461 112.396C167.461 112.396 171.282 106.302 174.38 106.096C177.479 105.889 191.836 105.889 191.836 105.889C191.836 105.889 199.065 108.575 201.131 111.673C203.197 114.772 206.812 125.513 205.469 131.297C204.126 137.081 199.788 141.42 199.788 141.42C199.788 141.42 193.901 143.692 190.802 143.692C187.704 143.692 173.761 142.556 173.761 142.246L173.761 142.245Z" fill="black" stroke="black"/>
<path fill-rule="evenodd" clip-rule="evenodd" d="M6.13288 114.151L5.92627 112.705L7.68211 109.917L15.3249 108.884L38.6671 109.091L79.3603 108.987C79.3603 108.987 85.3507 94.0109 86.2802 94.3209C87.2096 94.6309 113.031 95.5602 113.031 95.5602L120.674 96.9032C120.674 96.9032 125.425 100.931 126.664 101.241C127.903 101.551 144.429 100.415 144.429 100.415L146.701 107.955L150.213 108.161L151.762 109.504L153.724 109.917L154.138 108.264L162.607 108.368L167.874 111.053L130.589 111.569L131.002 113.842L167.255 113.325L173.039 113.118L173.349 129.334L173.142 131.606L134.1 133.672L133.584 135.428L132.345 135.015L130.693 133.156L116.336 132.742L110.552 121.484L96.2986 115.184L81.1155 120.452L74.0922 141.315C74.0922 141.315 74.712 141.315 73.266 142.451C71.8199 143.587 73.8858 142.038 73.4727 142.038C73.0596 142.038 57.6701 141.315 57.6701 141.315L6.13183 114.151L6.13288 114.151Z" fill="#070500"/>
<path fill-rule="evenodd" clip-rule="evenodd" d="M150.485 2.29639L118.859 9.66568L136.054 87.9642L140.66 107.615L150.178 107.001L150.485 2.29887L150.485 2.29639Z" fill="#B7B7B7" stroke="#FFF7C2"/>
<path fill-rule="evenodd" clip-rule="evenodd" d="M121.606 102.377L143.709 102.584C143.709 102.584 145.775 39.3759 144.019 38.9594C142.263 38.5462 116.752 33.0723 116.752 33.0723L111.898 34.9314L115.823 38.8561L111.071 60.1326L110.039 62.0949L109.936 83.6818L121.607 102.376L121.606 102.377Z" fill="black"/>
<path fill-rule="evenodd" clip-rule="evenodd" d="M129.868 98.0402H137.201C137.201 98.0402 140.92 97.627 140.92 93.4955C140.92 89.364 139.68 41.749 139.68 41.749L122.845 36.8952C122.845 36.8952 120.779 35.8622 119.333 38.1345C117.887 40.4068 116.958 45.6744 116.441 49.2891C115.925 52.9039 114.479 60.96 114.479 60.96L115.202 97.213L129.868 98.0392L129.868 98.0402Z" fill="#B7B7B7" stroke="#FFF7C3"/>
<path fill-rule="evenodd" clip-rule="evenodd" d="M123.256 62.9217C123.256 62.9217 115.097 62.8186 116.543 57.5513C117.989 52.2837 119.848 42.3681 119.848 42.3681C119.848 42.3681 119.538 39.7859 123.463 40.8189C127.388 41.8519 138.336 44.6404 138.336 44.6404L137.303 65.4003L123.256 62.9213V62.9217Z" fill="url(#paint1_linear)" stroke="black"/>
<path fill-rule="evenodd" clip-rule="evenodd" d="M262.38 109.814L262.793 122.208L250.502 122.724L251.535 110.743L259.178 108.678L262.38 109.814L262.38 109.814Z" fill="black" stroke="black"/>
<path fill-rule="evenodd" clip-rule="evenodd" d="M224.787 101.656L215.181 104.032L217.04 110.126C217.04 110.126 223.754 115.6 224.374 116.219C224.993 116.839 225.82 127.064 225.82 127.064L233.36 123.966L232.43 106.717L224.786 101.656L224.787 101.656Z" fill="black" stroke="black"/>
<path fill-rule="evenodd" clip-rule="evenodd" d="M284.691 126.238L294.813 126.858C294.813 126.858 299.461 125.412 299.874 121.694C300.287 117.976 299.667 110.126 298.841 108.887C298.015 107.647 293.987 100.83 291.921 101.657C289.856 102.483 277.668 106.924 278.907 108.577C280.147 110.229 282.006 116.426 282.006 118.286C282.006 120.144 281.8 123.656 281.386 123.656C280.973 123.656 283.659 126.342 284.691 126.238L284.691 126.238Z" fill="black" stroke="black"/>
<path fill-rule="evenodd" clip-rule="evenodd" d="M270.542 128.717L277.462 128.51C277.462 128.51 284.588 125.205 283.349 117.149C282.11 109.093 278.908 103.826 274.26 103.516C269.612 103.206 260.627 103.516 260.627 103.516L258.044 107.234L259.387 120.764C259.387 120.764 263.105 128.717 265.068 128.613C267.03 128.51 270.749 128.923 270.542 128.717L270.542 128.717Z" fill="black" stroke="black"/>
<path fill-rule="evenodd" clip-rule="evenodd" d="M71.718 131.504C71.718 131.504 72.751 147.101 78.328 151.232C83.9055 155.363 90.4126 157.222 90.8255 157.222C91.2386 157.222 102.6 157.635 105.698 155.776C108.797 153.917 114.271 148.443 114.994 146.274C115.717 144.105 116.647 135.946 116.13 131.402C115.614 126.857 107.558 108.576 107.558 108.576L86.5912 109.092L73.2675 120.247L71.8214 132.021L71.7183 131.505L71.718 131.504Z" fill="black"/>
<path fill-rule="evenodd" clip-rule="evenodd" d="M98.8827 117.355C98.8827 117.355 85.559 119.731 85.9719 132.539C86.3851 145.346 97.9528 147.308 97.9528 147.308C97.9528 147.308 112.206 145.036 110.14 132.022C108.075 119.008 105.906 120.454 105.906 120.454C105.906 120.454 104.253 118.182 101.981 117.769C99.7086 117.356 98.6756 117.563 98.8824 117.356L98.8827 117.355Z" fill="#B7B7B7"/>
<path fill-rule="evenodd" clip-rule="evenodd" d="M96.1954 130.367C96.1954 130.367 95.3692 137.391 99.0871 138.217C102.805 139.043 104.458 133.776 104.458 133.156C104.458 132.536 103.632 126.34 100.533 126.959C97.4348 127.579 95.7823 130.47 96.1956 130.367L96.1954 130.367Z" fill="black"/>
<path fill-rule="evenodd" clip-rule="evenodd" d="M95.7831 144.516L99.501 144.723C99.501 144.723 101.36 142.037 99.9141 142.244C98.4685 142.451 95.5764 144.516 95.7831 144.516L95.7831 144.516Z" fill="black"/>
<path fill-rule="evenodd" clip-rule="evenodd" d="M97.6412 120.143L100.327 119.936C100.327 119.936 102.393 122.415 100.533 122.415C98.6742 122.415 97.0217 120.762 97.0217 120.762L97.6412 120.143H97.6412Z" fill="black" stroke="black"/>
<path fill-rule="evenodd" clip-rule="evenodd" d="M87.6252 70.6709L87.7288 76.248L105.287 77.591L105.08 72.0134L87.6254 70.6709L87.6252 70.6709Z" fill="black" stroke="url(#paint2_linear)"/>
<path fill-rule="evenodd" clip-rule="evenodd" d="M33.499 91.9566L34.6209 71.7915C34.6209 71.7915 35.972 68.5176 31.7852 68.8245C26.5705 69.2071 14.769 72.3051 14.769 72.3051C14.769 72.3051 10.4703 71.6913 9.85631 75.99C9.24221 80.2888 8.01401 100.554 8.01401 100.554C8.01401 100.554 6.17171 108.537 11.6986 108.537C17.2257 108.537 28.8933 108.23 28.8933 108.23C28.8933 108.23 33.1921 110.687 33.1921 102.089C33.1921 93.4918 33.1921 91.0356 33.4991 91.9571L33.499 91.9566Z" fill="#B7B7B7"/>
<path fill-rule="evenodd" clip-rule="evenodd" d="M199.48 138.629L220.859 140.178C220.859 140.178 228.089 134.704 227.057 124.892C226.024 115.08 224.888 110.743 217.245 103.099C209.602 95.4565 197.621 110.226 197.621 110.226L201.132 125.822L199.48 138.629L199.48 138.629Z" fill="black" stroke="black"/>
<path fill-rule="evenodd" clip-rule="evenodd" d="M247.819 97.7918C250.582 99.6343 256.109 110.073 256.109 110.073V118.057L252.425 124.812L226.633 126.654L231.545 119.9V108.845L221.106 101.476L240.45 94.1072L250.275 99.6338L248.74 99.3265" fill="black"/>
<path fill-rule="evenodd" clip-rule="evenodd" d="M253.498 110.023H263L262.587 108.37L260.108 108.163L265.169 102.69L249.78 103.516L253.498 110.023V110.023Z" fill="#B7B7B7"/>
<path fill-rule="evenodd" clip-rule="evenodd" d="M150.793 107.924L149.872 2.91333C149.872 2.91333 311.996 52.6534 310.766 53.2701C309.538 53.8839 312 104.36 312 104.36L150.793 107.924L150.793 107.924Z" fill="black"/>
<path fill-rule="evenodd" clip-rule="evenodd" d="M150.793 107.924L149.872 2.91333C149.872 2.91333 311.996 52.6534 310.766 53.2701C309.538 53.8839 312 104.36 312 104.36L150.793 107.924L150.793 107.924Z" fill="url(#paint3_linear)"/>
<path fill-rule="evenodd" clip-rule="evenodd" d="M150.793 107.924L149.872 2.91333C149.872 2.91333 311.996 52.6534 310.766 53.2701C309.538 53.8839 312 104.36 312 104.36L150.793 107.924L150.793 107.924Z" stroke="#FFF7CC"/>
<path fill-rule="evenodd" clip-rule="evenodd" d="M113.945 35.7649L115.787 34.5368L121.314 35.7649L136.052 39.4498C136.052 39.4498 139.123 40.0636 141.579 40.0636C144.035 40.0636 145.264 38.8355 145.264 38.8355L144.957 1.06827L138.201 1.06827C138.201 1.06827 135.131 0.454001 127.148 2.91069C119.164 5.36697 99.513 10.8939 99.513 10.8939C99.513 10.8939 81.3975 17.035 74.6422 29.9309C67.8872 42.8269 66.6589 47.7396 66.6589 47.7396C66.6589 47.7396 78.5557 41.6102 81.0123 41.6102C83.4686 41.6102 99.8258 38.3385 99.8258 38.3385C99.8258 38.3385 106.073 39.6844 109.143 38.4558C111.491 37.5166 113.637 35.7648 113.944 35.7648L113.945 35.7649Z" fill="url(#paint4_linear)" stroke="#FFF6BF"/>
<path fill-rule="evenodd" clip-rule="evenodd" d="M121.294 98.4525L112.411 84.9226C112.411 84.9226 110.759 82.2372 106.628 81.6173C102.496 80.9978 64.9012 81.824 64.9012 81.824C64.9012 81.824 58.9107 82.6502 54.1594 84.0964C49.4085 85.542 40.1128 90.3964 39.2867 90.6034C38.46 90.8098 37.6338 91.326 37.4275 92.9789C37.2207 94.6313 36.8076 110.331 36.8076 110.331L80.2921 110.641C80.2921 110.641 85.0435 96.1807 88.8649 96.2837C92.6864 96.3873 116.545 97.3167 116.545 97.3167C116.545 97.3167 122.742 102.378 123.155 102.378C123.568 102.378 123.568 100.725 123.155 100.518C122.742 100.312 121.606 98.6592 121.296 98.4529L121.294 98.4525Z" fill="#B7B7B7"/>
<path fill-rule="evenodd" clip-rule="evenodd" d="M124.738 43.8945H128.782V56.9046C128.782 56.9046 123.973 57.0603 124.191 56.9046C124.41 56.7487 124.246 43.8945 124.246 43.8945H124.738H124.738Z" fill="#B7B7B7" stroke="#FFD454"/>
<path fill-rule="evenodd" clip-rule="evenodd" d="M125.395 48.6484L126.379 51.1415C126.379 51.1415 126.16 50.5183 126.816 50.5183C127.472 50.5183 127.472 51.2972 127.472 51.2972L126.379 49.116L125.395 48.6484V48.6484Z" fill="#B7B7B7" stroke="#434343"/>
<path fill-rule="evenodd" clip-rule="evenodd" d="M116.756 62.2009L122.058 63.8369L126.649 50.7491C126.649 50.7491 126.485 49.6584 126.485 49.97C126.485 50.2816 121.949 62.824 121.949 62.824C121.949 62.824 118.341 61.8892 118.56 61.8892C118.779 61.8892 126.431 50.2816 126.431 50.2816L126.212 49.5024L116.756 62.201L116.756 62.2009Z" fill="#B7B7B7" stroke="#787878"/>
<path fill-rule="evenodd" clip-rule="evenodd" d="M125.611 49.1089C125.611 49.1089 120.145 44.1341 119.817 44.1341C119.489 44.1341 116.921 43.0106 116.921 43.0106L116.702 41.406C116.702 41.406 119.107 42.5294 119.325 42.5294C119.544 42.5294 126.158 48.8679 126.158 48.8679L125.611 49.1088L125.611 49.1089Z" fill="#B7B7B7" stroke="#787878"/>
<path fill-rule="evenodd" clip-rule="evenodd" d="M39.0787 93.3906L71.0965 93.1838L70.787 107.024L38.5625 106.507L37.9426 101.034L39.182 100.827L39.0788 93.3908L39.0787 93.3906Z" fill="black"/>
<path fill-rule="evenodd" clip-rule="evenodd" d="M40.3201 94.5278C41.7662 94.5278 59.3246 94.1147 59.3246 94.1147L59.9441 95.664L41.8695 95.8703L41.0433 105.683H39.5972L40.3202 94.5279L40.3201 94.5278Z" fill="#908D8D"/>
<path fill-rule="evenodd" clip-rule="evenodd" d="M40.3201 105.165C40.9399 105.165 59.9442 105.785 59.9442 105.785L60.2541 94.217L41.3533 94.7333L40.3203 105.165L40.3201 105.165Z" fill="#B7B7B7"/>
<path fill-rule="evenodd" clip-rule="evenodd" d="M59.6354 105.373C60.8747 104.753 70.2734 105.683 70.2734 105.683L70.4802 94.1151L60.1518 93.5984L59.6355 105.373L59.6354 105.373Z" fill="black"/>
<path fill-rule="evenodd" clip-rule="evenodd" d="M59.7356 98.4526C60.1487 98.4526 70.0641 99.0725 70.0641 99.0725C70.0641 99.0725 71.0966 100.931 69.8573 100.931C68.618 100.931 60.3551 100.725 60.3551 100.725L59.7356 98.4527L59.7356 98.4526Z" fill="#B7B7B7"/>
<path fill-rule="evenodd" clip-rule="evenodd" d="M4.2738 113.943C4.2738 113.943 6.3395 113.53 6.95917 113.53C7.57887 113.53 78.7418 114.15 78.7418 114.15C78.7418 114.15 75.9533 134.6 72.7514 135.323C69.5493 136.046 40.5269 136.562 40.5269 136.562C40.5269 136.562 28.0294 136.356 26.5837 136.149C25.1377 135.943 6.34002 133.671 6.34002 133.671L4.58418 127.99L4.27432 113.943L4.2738 113.943Z" fill="#B7B7B7"/>
<path fill-rule="evenodd" clip-rule="evenodd" d="M7.68229 115.493L7.06262 122.62C7.06262 122.62 8.302 126.751 9.33485 125.305C10.3677 123.859 10.5743 122.413 10.5743 122.413L10.8841 115.08L7.68229 115.493V115.493Z" fill="black" stroke="black"/>
<path fill-rule="evenodd" clip-rule="evenodd" d="M26.9964 116.114C26.9964 116.114 26.8931 122.931 27.0997 123.343C27.3063 123.757 28.3391 127.475 29.3719 125.822C30.4048 124.17 30.8179 122.93 30.8179 122.93L31.1278 116.217L26.9964 116.114L26.9964 116.114Z" fill="black" stroke="black"/>
<path fill-rule="evenodd" clip-rule="evenodd" d="M79.5674 116.01L31.6456 116.01L6.54769 115.39L4.27543 114.977C4.27543 114.977 3.65572 113.737 4.27543 113.737C4.89517 113.737 7.27064 112.291 8.82011 112.911C10.3693 113.531 82.0485 112.911 82.0485 112.911L79.5695 116.01H79.5674Z" fill="black"/>
<path fill-rule="evenodd" clip-rule="evenodd" d="M22.245 133.775C22.245 133.775 24.414 142.967 29.8878 145.343C35.3616 147.718 40.4229 148.958 45.7938 148.131C51.1647 147.305 57.2581 144.827 58.0847 141.315C58.9109 137.803 58.8073 132.949 58.8073 132.949L22.2448 133.775H22.245Z" fill="black" stroke="black"/>
<path fill-rule="evenodd" clip-rule="evenodd" d="M77.4008 128.613C75.7479 128.613 33.712 130.059 19.0463 128.613C4.37981 127.167 4.27649 127.064 4.27649 127.064L4.68963 128.717L6.34218 133.57C6.34218 133.57 31.2338 136.256 32.1634 136.566C33.0927 136.876 75.0271 135.326 75.0271 135.326L77.4025 128.613L77.4008 128.613Z" fill="black"/>
<path fill-rule="evenodd" clip-rule="evenodd" d="M16.2546 128.717C16.2546 128.717 16.9776 132.848 18.0105 132.848H21.109C21.109 132.848 21.832 128.924 21.0057 128.717C20.1794 128.511 16.2548 128.511 16.2548 128.717H16.2546Z" fill="#B7B7B7" stroke="black"/>
<path fill-rule="evenodd" clip-rule="evenodd" d="M10.5741 92.6694L10.3676 91.4301L11.6069 91.6364L11.8135 91.0169H11.1938V89.9839H12.6398L12.2266 91.2232L13.2595 91.43L14.912 89.5708L15.1186 90.397C15.1186 90.397 14.7055 93.0824 14.2923 93.0824C13.8792 93.0824 10.5741 93.0824 10.5741 92.6693L10.5741 92.6694Z" fill="url(#paint5_radial)"/>
<path fill-rule="evenodd" clip-rule="evenodd" d="M15.8417 92.1531L16.2548 91.3265L18.7336 91.1202V90.0872H18.3205V89.261H19.7665L19.3534 90.9134L19.6632 91.9464L19.4566 92.5663L16.3581 92.7725L15.8417 92.1531Z" fill="url(#paint6_radial)"/>
<path fill-rule="evenodd" clip-rule="evenodd" d="M21.3156 92.3573C21.3156 91.9442 21.4188 90.9112 21.4188 90.9112L21.2123 89.2588L21.4188 88.4326C21.4188 88.4326 26.3764 88.0195 25.9635 88.4326C25.5504 88.8458 25.757 89.2588 25.757 89.2588L22.2453 89.6719V90.7049L25.8602 91.2212L25.2405 92.2542C25.2405 92.2542 20.4896 92.2542 21.3157 92.3573H21.3156Z" fill="#B7B7B7"/>
<path fill-rule="evenodd" clip-rule="evenodd" d="M26.583 91.9444V88.2261H28.4421L27.8224 89.2591L30.3012 88.2261H31.3341V88.846L30.0947 89.2591L31.3341 91.5313H29.8881L28.2355 90.4984L28.029 91.9444H26.583V91.9444Z" fill="url(#paint7_radial)"/>
<path fill-rule="evenodd" clip-rule="evenodd" d="M12.5364 72.6335L12.2266 74.2858L34.4326 70.7742L34.0195 69.1218L12.5363 72.6334L12.5364 72.6335Z" fill="black"/>
<path fill-rule="evenodd" clip-rule="evenodd" d="M10.0576 76.5581C11.4003 76.868 33.7098 73.1497 33.7098 73.1497V74.1827L10.2643 77.6943L10.6774 76.2482L10.0577 76.5581H10.0576Z" fill="black"/>
<path fill-rule="evenodd" clip-rule="evenodd" d="M10.6775 79.4496L33.0902 76.1448V76.971L11.0908 80.2763L10.6777 79.4496L10.6775 79.4496Z" fill="black"/>
<path fill-rule="evenodd" clip-rule="evenodd" d="M10.6257 82.7535L33.0384 79.4482V80.2749L11.039 83.5798L10.6259 82.7536L10.6257 82.7535Z" fill="black" stroke="black"/>
<path fill-rule="evenodd" clip-rule="evenodd" d="M10.3159 85.9536L32.7286 82.6487V83.4749L10.7292 86.7801L10.3161 85.9536H10.3159Z" fill="black" stroke="black"/>
<path fill-rule="evenodd" clip-rule="evenodd" d="M10.3159 90.4611L32.7286 87.1562V87.9825L10.7292 91.2877L10.3161 90.4611H10.3159Z" fill="black" stroke="black"/>
<path fill-rule="evenodd" clip-rule="evenodd" d="M9.98108 95.2088L32.5231 92.9473L32.4848 93.7726L10.3557 96.0535L9.98132 95.2088H9.98108Z" fill="black" stroke="black"/>
<path fill-rule="evenodd" clip-rule="evenodd" d="M9.59302 99.1774L32.0057 95.8721V96.6983L10.0063 100.004L9.59318 99.1774H9.59302Z" fill="black" stroke="black"/>
<path fill-rule="evenodd" clip-rule="evenodd" d="M9.69629 104.36L32.1089 102.977V103.803L10.1096 105.222L9.69649 104.36H9.69629Z" fill="black" stroke="black"/>
<path fill-rule="evenodd" clip-rule="evenodd" d="M130.589 111.26L130.796 114.359L172.418 113.739L172.212 111.26L130.589 111.26H130.589Z" fill="#B7B7B7"/>
<path fill-rule="evenodd" clip-rule="evenodd" d="M133.276 132.329L133.07 135.222L175.521 132.123V129.438L133.278 132.329H133.276Z" fill="#B7B7B7"/>
<path fill-rule="evenodd" clip-rule="evenodd" d="M129.66 105.581L129.557 106.511L142.157 107.234L142.467 102.586C142.467 102.586 134.101 101.553 134.928 102.586C135.754 103.619 135.237 105.478 135.237 105.478L129.66 105.581L129.66 105.581Z" fill="black"/>
<path fill-rule="evenodd" clip-rule="evenodd" d="M134.31 89.3655C134.516 89.7786 134.31 93.2906 134.31 93.2906C134.31 93.2906 134.723 94.8399 136.788 94.6331C138.854 94.4263 138.441 89.6755 138.441 89.6755L134.31 89.3656L134.31 89.3655Z" fill="black" stroke="black"/>
<path fill-rule="evenodd" clip-rule="evenodd" d="M192.56 114.047C192.56 114.047 200.616 117.972 199.273 126.131C197.931 134.291 195.142 136.356 193.489 136.356C191.837 136.356 185.536 133.568 186.569 124.685C187.602 115.803 189.565 114.77 192.56 114.047Z" fill="#B7B7B7"/>
<path fill-rule="evenodd" clip-rule="evenodd" d="M189.148 131.609C189.148 131.609 195.28 130.745 195.453 124.993C195.626 119.24 189.234 115.404 188.888 115.596C188.543 115.788 186.765 120.966 187.111 121.157C187.456 121.349 194.675 123.362 193.812 125.856C192.948 128.348 191.566 129.882 188.284 130.458C185.002 131.033 189.148 131.8 189.148 131.609L189.148 131.609Z" fill="black"/>
<path fill-rule="evenodd" clip-rule="evenodd" d="M215.075 123.035C215.075 123.035 215.282 113.326 219.62 113.739C223.957 114.152 225.507 122.725 225.507 124.171C225.507 125.617 223.338 134.912 220.962 133.776C218.587 132.64 215.178 129.438 215.075 123.035Z" fill="#B7B7B7"/>
<path fill-rule="evenodd" clip-rule="evenodd" d="M216.781 115.241C216.781 115.241 223.237 117.149 221.585 122.519C219.933 127.89 219.301 127.692 218.657 129.606C217.507 133.026 216.28 128.943 216.28 128.943C216.28 128.943 219.726 127.27 220.139 124.069C220.552 120.867 215.36 119.005 215.36 119.005L216.781 115.241L216.781 115.241Z" fill="black"/>
<path fill-rule="evenodd" clip-rule="evenodd" d="M251.743 124.067L264.344 123.551L264.55 121.692C264.55 121.692 251.537 121.898 251.537 122.312C251.537 122.725 252.157 123.964 251.743 124.067H251.743Z" fill="black"/>
<path fill-rule="evenodd" clip-rule="evenodd" d="M276.325 110.435C276.325 110.435 282.728 113.431 281.489 118.801C280.25 124.172 278.287 126.445 276.841 126.031C275.395 125.618 272.09 124.998 272.194 118.491C272.297 111.984 274.982 110.539 276.325 110.435Z" fill="#B7B7B7"/>
<path fill-rule="evenodd" clip-rule="evenodd" d="M273.922 111.748C273.922 111.748 280.014 113.414 278.7 117.042C277.568 120.167 277.803 121.778 274.894 122.56C271.696 123.42 272.604 121.187 272.604 121.187C272.604 121.187 276.424 121.305 276.634 119.004C276.814 117.029 277.091 116.307 274.199 115.274C271.307 114.241 274.232 111.955 273.922 111.748L273.922 111.748Z" fill="black"/>
<path fill-rule="evenodd" clip-rule="evenodd" d="M292.332 116.939C292.332 116.939 292.126 109.606 294.605 109.606C297.084 109.606 299.149 114.357 299.149 116.423C299.149 118.488 298.839 124.582 296.361 124.582C293.882 124.582 291.816 119.108 292.333 116.939H292.332Z" fill="#B7B7B7"/>
<path fill-rule="evenodd" clip-rule="evenodd" d="M293.398 110.327C293.398 110.327 297.599 113.017 297.186 116.735C296.773 120.453 293.847 122.711 293.847 122.711C293.847 122.711 292.066 120.239 293.384 120.343C294.989 120.47 296.234 119.808 295.224 117.876C294.675 116.826 294.851 116.094 293.192 114.528C291.612 113.035 293.501 110.534 293.397 110.327L293.398 110.327Z" fill="black"/>
<path fill-rule="evenodd" clip-rule="evenodd" d="M113.136 34.0027C113.136 34.0027 115.615 32.3503 119.746 31.5241C123.877 30.6979 133.38 26.5665 134.206 24.9141C135.032 23.2612 144.948 17.4775 144.948 19.1303V38.9607L116.854 33.1769L113.136 34.0031L113.136 34.0027Z" fill="#B7B7B7" stroke="#FFF6BF"/>
<path fill-rule="evenodd" clip-rule="evenodd" d="M67.577 46.1015C67.577 46.1015 70.3762 42.164 83.0801 39.2721C95.7839 36.3799 107.455 35.0374 110.14 35.0374C112.826 35.0374 116.957 35.8636 116.75 41.0278L116.544 46.1924C116.544 46.1924 114.788 56.8309 114.169 58.2766C113.549 59.7227 111.173 62.3051 110.14 62.3051C109.107 62.3051 109.314 60.0328 106.422 59.6197C103.53 59.2065 64.4872 60.549 64.4872 60.549C64.4872 60.549 62.628 61.4788 63.0411 58.6898C63.4546 55.9012 67.3768 46.502 67.3768 46.502L67.577 46.1015Z" fill="url(#paint8_linear)" stroke="black"/>
<path d="M179.712 49.7058L179.712 40.0942L213.223 46.502L211.951 55.5129L200.738 53.5104L198.135 88.9532L187.121 88.9532L190.125 51.3078L179.712 49.7058Z" fill="#B7B7B7"/>
<path d="M217.854 83.895L220.962 50.9074L228.571 52.9098L236.754 67.8105L247.376 55.7278L254.202 56.9146L250.598 85.349L243.189 85.349L245.655 66.9972L235.549 78.1466L234.524 78.0271L227.377 63.9162L224.566 83.895L217.854 83.895Z" fill="#B7B7B7"/>
<path d="M274.206 79.124C274.274 78.4132 273.954 77.742 273.245 77.1106C272.54 76.4538 271.665 75.8193 270.622 75.207C269.579 74.5948 268.542 73.9191 267.512 73.1799C266.481 72.4407 265.64 71.4508 264.991 70.2101C264.341 68.9694 264.092 67.5493 264.246 65.95C264.45 63.8175 265.41 62.0777 267.128 60.7305C268.845 59.3834 270.999 58.8338 273.588 59.0817C276.99 59.4074 279.511 60.6351 281.152 62.7649L277.44 67.021C276.815 66.3207 276.237 65.8042 275.705 65.4714C275.198 65.1411 274.488 64.9323 273.574 64.8448C272.737 64.7645 272.06 64.8791 271.543 65.1883C271.052 65.5 270.778 65.9604 270.719 66.5697C270.654 67.2552 270.862 67.89 271.344 68.4741C271.851 69.0607 272.494 69.5706 273.273 70.0038C274.079 70.414 274.94 70.9192 275.856 71.5193C276.772 72.1194 277.608 72.7503 278.365 73.4119C279.149 74.0507 279.758 74.916 280.191 76.0079C280.653 77.0768 280.818 78.2967 280.687 79.6676C280.468 81.9524 279.412 83.7472 277.519 85.0519C275.652 86.3591 273.411 86.8875 270.796 86.6371C268.892 86.4548 267.102 85.8864 265.426 84.9317C263.749 83.977 262.671 82.7977 262.191 81.3939L266.053 77.5749C266.677 78.5569 267.486 79.3389 268.48 79.9209C269.5 80.5053 270.505 80.8449 271.495 80.9397C272.282 81.015 272.909 80.8957 273.374 80.5816C273.868 80.2445 274.145 79.7587 274.206 79.124Z" fill="#B7B7B7"/>
</g>
<defs>
<filter id="filter0_d" x="0" y="0.5" width="316.524" height="164.761" filterUnits="userSpaceOnUse" color-interpolation-filters="sRGB">
<feFlood flood-opacity="0" result="BackgroundImageFix"/>
<feColorMatrix in="SourceAlpha" type="matrix" values="0 0 0 0 0 0 0 0 0 0 0 0 0 0 0 0 0 0 127 0"/>
<feOffset dy="4"/>
<feGaussianBlur stdDeviation="2"/>
<feColorMatrix type="matrix" values="0 0 0 0 0 0 0 0 0 0 0 0 0 0 0 0 0 0 0.25 0"/>
<feBlend mode="normal" in2="BackgroundImageFix" result="effect1_dropShadow"/>
<feBlend mode="normal" in="SourceGraphic" in2="effect1_dropShadow" result="shape"/>
</filter>
<linearGradient id="paint0_linear" x1="59.6991" y1="58.3784" x2="59.6991" y2="110.846" gradientUnits="userSpaceOnUse">
<stop stop-color="#242323"/>
<stop offset="0.78125"/>
</linearGradient>
<linearGradient id="paint1_linear" x1="127.353" y1="40.575" x2="127.353" y2="65.4003" gradientUnits="userSpaceOnUse">
<stop/>
<stop offset="1" stop-color="#1C1C1C"/>
</linearGradient>
<linearGradient id="paint2_linear" x1="87.4103" y1="74.1309" x2="105.502" y2="74.1309" gradientUnits="userSpaceOnUse">
<stop/>
<stop offset="1" stop-opacity="0"/>
</linearGradient>
<linearGradient id="paint3_linear" x1="230.936" y1="2.91333" x2="230.936" y2="107.924" gradientUnits="userSpaceOnUse">
<stop stop-color="#1B1B1B"/>
<stop offset="1" stop-color="#666464" stop-opacity="0"/>
</linearGradient>
<linearGradient id="paint4_linear" x1="105.961" y1="1" x2="105.961" y2="47.7396" gradientUnits="userSpaceOnUse">
<stop/>
<stop offset="1"/>
</linearGradient>
<radialGradient id="paint5_radial" cx="0" cy="0" r="1" gradientUnits="userSpaceOnUse" gradientTransform="translate(11.5954 84.3345) scale(2.21315 1.63581)">
<stop stop-color="#D0D0D0"/>
<stop offset="1" stop-color="#D0D0D0" stop-opacity="0"/>
</radialGradient>
<radialGradient id="paint6_radial" cx="0" cy="0" r="1" gradientUnits="userSpaceOnUse" gradientTransform="translate(16.3106 84.0479) scale(2.02849 1.83605)">
<stop stop-color="#D0D0D0"/>
<stop offset="1" stop-color="#D0D0D0" stop-opacity="0"/>
</radialGradient>
<radialGradient id="paint7_radial" cx="0" cy="0" r="1" gradientUnits="userSpaceOnUse" gradientTransform="translate(26.7028 83.1801) scale(2.41339 1.93228)">
<stop stop-color="#D0D0D0"/>
<stop offset="1" stop-color="#D0D0D0" stop-opacity="0"/>
</radialGradient>
<linearGradient id="paint8_linear" x1="89.8695" y1="35.0374" x2="89.8695" y2="62.3051" gradientUnits="userSpaceOnUse">
<stop stop-color="#020202"/>
<stop offset="1" stop-color="#161616"/>
</linearGradient>
</defs>
</svg>
